<?xml version="1.0" encoding="utf-8"?>
<!-- Generator: Adobe Illustrator 28.0.0, SVG Export Plug-In . SVG Version: 6.00 Build 0)  -->
<svg version="1.1" id="Layer_1" xmlns="http://www.w3.org/2000/svg" xmlns:xlink="http://www.w3.org/1999/xlink" x="0px" y="0px"
	 viewBox="0 0 345.6 78" style="enable-background:new 0 0 345.6 78;" xml:space="preserve">
<style type="text/css">
	.st0{fill:#5E2CED;}
	.st1{fill:#DD471F;}
	.st2{fill:#E8BB00;}
</style>
<g>
	<path class="st0" d="M104.6,30.4v8.3h11.2V44h-11.2v8.8h12.6v5.4H98V25h19.2v5.4H104.6z"/>
	<path class="st0" d="M145.4,34.4c1.9,2,2.9,4.7,2.9,8.3v15.4h-6.7V43.6c0-2.1-0.5-3.7-1.6-4.8s-2.5-1.7-4.3-1.7
		c-1.8,0-3.3,0.6-4.3,1.7c-1.1,1.1-1.6,2.7-1.6,4.8v14.5h-6.6V31.8h6.6v3.3c0.9-1.1,2-2,3.4-2.7c1.4-0.6,2.9-1,4.5-1
		C140.9,31.5,143.5,32.5,145.4,34.4z"/>
	<path class="st0" d="M154.5,37.8c1.1-2.1,2.5-3.6,4.3-4.8c1.8-1.1,3.9-1.7,6.1-1.7c1.7,0,3.3,0.4,4.9,1.1c1.6,0.7,2.8,1.7,3.7,3V23
		h6.7v35.1h-6.7v-3.9c-0.8,1.3-2,2.3-3.5,3.1s-3.2,1.2-5.2,1.2c-2.2,0-4.2-0.6-6.1-1.7c-1.8-1.1-3.3-2.7-4.3-4.8
		c-1.1-2.1-1.6-4.5-1.6-7.1C152.9,42.2,153.4,39.9,154.5,37.8z M172.7,40.8c-0.6-1.2-1.5-2-2.6-2.7c-1.1-0.6-2.2-0.9-3.5-0.9
		c-1.2,0-2.4,0.3-3.4,0.9c-1,0.6-1.9,1.5-2.5,2.6c-0.6,1.2-1,2.5-1,4.1s0.3,3,1,4.2c0.6,1.2,1.5,2.1,2.6,2.7c1.1,0.6,2.2,1,3.4,1
		c1.2,0,2.4-0.3,3.5-0.9c1.1-0.6,1.9-1.5,2.6-2.7s1-2.5,1-4.2S173.3,42,172.7,40.8z"/>
	<path class="st0" d="M197,32.6c1.5-0.8,3.2-1.2,5.2-1.2c2.2,0,4.3,0.6,6.1,1.7c1.8,1.1,3.3,2.7,4.3,4.7c1.1,2,1.6,4.4,1.6,7.1
		s-0.5,5.1-1.6,7.1c-1.1,2.1-2.5,3.7-4.3,4.8c-1.8,1.1-3.9,1.7-6.1,1.7c-2,0-3.7-0.4-5.2-1.2c-1.5-0.8-2.7-1.8-3.5-3v3.8h-6.6V23
		h6.6v12.7C194.3,34.4,195.5,33.4,197,32.6z M206.4,40.8c-0.6-1.2-1.5-2-2.6-2.6c-1.1-0.6-2.2-0.9-3.4-0.9c-1.2,0-2.3,0.3-3.4,0.9
		c-1.1,0.6-1.9,1.5-2.6,2.7c-0.6,1.2-1,2.5-1,4.1c0,1.6,0.3,3,1,4.1c0.6,1.2,1.5,2.1,2.6,2.7s2.2,0.9,3.4,0.9c1.2,0,2.4-0.3,3.4-1
		c1.1-0.6,1.9-1.5,2.6-2.7c0.6-1.2,1-2.6,1-4.2C207.4,43.3,207.1,42,206.4,40.8z"/>
	<path class="st0" d="M225.7,23v35.1H219V23H225.7z"/>
	<path class="st0" d="M237.1,56.9c-2-1.1-3.6-2.7-4.8-4.8c-1.2-2.1-1.7-4.4-1.7-7.1s0.6-5.1,1.8-7.1c1.2-2.1,2.8-3.6,4.9-4.8
		c2.1-1.1,4.4-1.7,6.9-1.7c2.5,0,4.8,0.6,6.9,1.7c2.1,1.1,3.7,2.7,4.9,4.8s1.8,4.4,1.8,7.1s-0.6,5.1-1.8,7.1
		c-1.2,2.1-2.9,3.7-4.9,4.8c-2.1,1.1-4.4,1.7-7,1.7C241.4,58.6,239.1,58,237.1,56.9z M247.3,51.9c1.1-0.6,1.9-1.5,2.5-2.6
		c0.6-1.2,0.9-2.6,0.9-4.3c0-2.5-0.7-4.4-2-5.8c-1.3-1.3-2.9-2-4.8-2c-1.9,0-3.5,0.7-4.8,2c-1.3,1.3-1.9,3.3-1.9,5.8
		c0,2.5,0.6,4.4,1.9,5.8c1.2,1.3,2.8,2,4.7,2C245.1,52.8,246.2,52.5,247.3,51.9z"/>
	<path class="st0" d="M262.5,37.9c1.1-2,2.6-3.6,4.6-4.7c2-1.1,4.2-1.7,6.7-1.7c3.3,0,6,0.8,8.1,2.4c2.1,1.6,3.6,3.9,4.3,6.9h-7.2
		c-0.4-1.1-1-2-1.9-2.7c-0.9-0.6-2-1-3.3-1c-1.9,0-3.4,0.7-4.5,2.1c-1.1,1.4-1.7,3.3-1.7,5.9c0,2.5,0.6,4.4,1.7,5.8
		c1.1,1.4,2.6,2.1,4.5,2.1c2.7,0,4.4-1.2,5.3-3.6h7.2c-0.7,2.8-2.2,5.1-4.3,6.8c-2.2,1.7-4.8,2.5-8.1,2.5c-2.5,0-4.8-0.6-6.7-1.7
		c-2-1.1-3.5-2.7-4.6-4.7c-1.1-2-1.7-4.4-1.7-7.1C260.8,42.3,261.4,39.9,262.5,37.9z"/>
	<path class="st0" d="M306.7,58.2L297.8,47v11.2h-6.6V23h6.6v20l8.8-11.2h8.6l-11.6,13.2l11.7,13.1H306.7z"/>
	<path class="st0" d="M323.1,57.4c-1.7-0.8-3.1-1.8-4.1-3.2c-1-1.3-1.5-2.8-1.6-4.4h6.7c0.1,1,0.6,1.9,1.5,2.5c0.9,0.7,2,1,3.3,1
		c1.3,0,2.3-0.3,3-0.8c0.7-0.5,1.1-1.2,1.1-1.9c0-0.9-0.4-1.5-1.3-1.9c-0.9-0.4-2.3-0.9-4.2-1.4c-2-0.5-3.6-1-4.8-1.5
		c-1.3-0.5-2.3-1.3-3.2-2.3s-1.4-2.5-1.4-4.2c0-1.5,0.4-2.8,1.3-4c0.8-1.2,2-2.2,3.6-2.8c1.6-0.7,3.4-1,5.5-1c3.1,0,5.6,0.8,7.5,2.4
		c1.9,1.6,2.9,3.7,3.1,6.3h-6.4c-0.1-1-0.5-1.9-1.3-2.5c-0.8-0.6-1.8-0.9-3.1-0.9c-1.2,0-2.1,0.2-2.8,0.7c-0.6,0.4-1,1.1-1,1.9
		c0,0.9,0.4,1.6,1.3,2c0.9,0.5,2.3,0.9,4.1,1.4c1.9,0.5,3.5,1,4.7,1.5c1.2,0.5,2.3,1.3,3.2,2.4c0.9,1.1,1.4,2.5,1.4,4.2
		c0,1.5-0.4,2.9-1.3,4.1c-0.8,1.2-2,2.1-3.6,2.8s-3.4,1-5.5,1C326.8,58.6,324.8,58.2,323.1,57.4z"/>
</g>
<g>
	<path class="st0" d="M26.7,47.8c0,7.6,0,15.2,0,22.8c0,1.8-1.5,3.5-3.3,3.6c-0.9,0.1-1.8,0.1-2.6,0.1c-3.4,0-6.8,0-10.2,0
		c-1.4,0-2.5-0.5-3.3-1.7c-0.5-0.7-0.7-1.6-0.7-2.4c0-2.7,0-5.5,0-8.2c0-4.4,0-8.7,0-13.1c0-5,0-10.1,0-15.1c0-2.7,0-5.4,0-8.1
		c0-2.6,1.6-4.2,4.2-4.2c4.1,0,8.2,0,12.3,0c2.3,0,3.7,1.9,3.7,3.7C26.7,32.7,26.7,40.2,26.7,47.8z"/>
	<path class="st1" d="M56.9,56.6c0-4.7,0-9.3,0-14c0-1.9,1.7-3.6,3.6-3.6c4.3,0,8.6,0,12.8,0c1.8,0,3.5,1.5,3.6,3.3
		c0.1,2.5,0.1,5.1,0.1,7.6c0,6.8,0,13.5,0,20.3c0,2-1.1,3.5-3,3.9c-0.3,0.1-0.7,0.1-1.1,0.1c-4,0-8.1,0-12.1,0c-2,0-3.4-1.1-3.9-3
		c0-0.2,0-0.4,0-0.6C56.9,66,56.9,61.3,56.9,56.6z"/>
	<path class="st0" d="M56.9,20.1c0-4.3,0-8.5,0-12.8c0-1.7,1.6-3.5,3.3-3.5c2-0.1,4-0.1,6-0.1c2.3,0,4.6,0,6.8,0
		c1.3,0,2.4,0.5,3.2,1.6c0.5,0.7,0.7,1.6,0.7,2.5c0,4,0,8.1,0,12.1c0,4.2,0,8.4,0,12.6c0,2-1.1,3.4-3,3.9c-0.3,0.1-0.7,0.1-1.1,0.1
		c-4.1,0-8.1,0-12.2,0c-1.9,0-3.5-1.2-3.9-3.1c0-0.2,0-0.4,0-0.6C56.9,28.6,56.9,24.4,56.9,20.1z"/>
	<path class="st0" d="M31.7,61.6c0-2.9,0-5.8,0-8.7c0-1.8,1.2-3.4,2.9-3.8c0.6-0.1,1.3-0.1,2-0.1c3.8,0,7.6,0,11.5,0
		c2.2,0,3.8,1.7,3.8,3.9c0,2.2,0,4.4,0,6.6c0,3.6,0,7.2,0,10.8c0,1.9-1.1,3.3-3,3.8c-0.3,0.1-0.7,0.1-1.1,0.1c-4,0-8.1,0-12.1,0
		c-2.4,0-4.1-1.6-4.1-4.1C31.7,67.3,31.7,64.5,31.7,61.6z"/>
	<path class="st2" d="M51.9,15.1c0,2.4,0,4.8,0,7.3c0,2.4-1.6,4.1-4.1,4.1c-4.1,0-8.1,0-12.2,0c-1.6,0-2.8-0.7-3.5-2.1
		c-0.5-0.8-0.4-1.8-0.4-2.7c0-4.6,0-9.2,0-13.9c0-2.4,1.6-4,4-4c3.9,0,7.9,0,11.8,0c0.8,0,1.5,0,2.2,0.3c1.5,0.7,2.2,1.9,2.2,3.5
		C51.9,10.1,51.9,12.6,51.9,15.1z"/>
	<path class="st0" d="M41.8,46.5c-2.2,0-4.3,0-6.5,0c-1.6,0-3.3-1.4-3.5-3c-0.1-0.4-0.1-0.8-0.1-1.2c0-3.2,0-6.3,0-9.5
		c0-1.5,0.7-2.8,2.1-3.5c0.5-0.3,1.2-0.4,1.7-0.4c4.2,0,8.4,0,12.5,0c2.1,0,3.8,1.7,3.8,3.9c0,3.3,0,6.7,0,10c0,2.1-1.7,3.8-3.8,3.8
		C46,46.5,43.9,46.5,41.8,46.5z"/>
	<path class="st0" d="M16.7,16.4c-2.1,0-4.3,0-6.4,0c-1.8,0-3.5-1.5-3.6-3.3c-0.1-2-0.1-4.1,0-6.1c0-1.5,1.7-3,3.1-3.1
		c0.7-0.1,1.3-0.1,2-0.1c3.7,0,7.3,0,11,0c1.9,0,3.4,1.1,3.9,3c0,0.2,0.1,0.4,0.1,0.6c0,1.8,0,3.7,0,5.5c0,1.8-1.8,3.6-3.6,3.6
		C21,16.4,18.8,16.4,16.7,16.4z"/>
</g>
</svg>
