<?xml version="1.0" encoding="utf-8"?>
<!-- Generator: Adobe Illustrator 28.0.0, SVG Export Plug-In . SVG Version: 6.00 Build 0)  -->
<svg version="1.1" id="Layer_1" xmlns="http://www.w3.org/2000/svg" xmlns:xlink="http://www.w3.org/1999/xlink" x="0px" y="0px"
	 viewBox="0 0 338 82" style="enable-background:new 0 0 338 82;" xml:space="preserve">
<style type="text/css">
	.st0{fill:#FFFFFF;}
	.st1{fill:#5E2CED;}
	.st2{fill:#DD471F;}
	.st3{fill:#E8BB00;}
</style>
<g>
	<g>
		<path class="st0" d="M100.7,32.4v8.3h11.2V46h-11.2v8.8h12.6v5.4H94V27h19.2v5.4H100.7z"/>
		<path class="st0" d="M141.5,36.4c1.9,2,2.9,4.7,2.9,8.3v15.4h-6.7V45.6c0-2.1-0.5-3.7-1.6-4.8s-2.5-1.7-4.3-1.7
			c-1.8,0-3.3,0.6-4.3,1.7c-1.1,1.1-1.6,2.7-1.6,4.8v14.5h-6.6V33.8h6.6v3.3c0.9-1.1,2-2,3.4-2.7c1.4-0.6,2.9-1,4.5-1
			C137,33.5,139.5,34.5,141.5,36.4z"/>
		<path class="st0" d="M150.6,39.8c1.1-2.1,2.5-3.6,4.3-4.8c1.8-1.1,3.9-1.7,6.1-1.7c1.7,0,3.3,0.4,4.9,1.1c1.6,0.7,2.8,1.7,3.7,3
			V25h6.7v35.1h-6.7v-3.9c-0.8,1.3-2,2.3-3.5,3.1s-3.2,1.2-5.2,1.2c-2.2,0-4.2-0.6-6.1-1.7c-1.8-1.1-3.3-2.7-4.3-4.8
			c-1.1-2.1-1.6-4.5-1.6-7.1C149,44.2,149.5,41.9,150.6,39.8z M168.7,42.8c-0.6-1.2-1.5-2-2.6-2.7c-1.1-0.6-2.2-0.9-3.5-0.9
			c-1.2,0-2.4,0.3-3.4,0.9c-1,0.6-1.9,1.5-2.5,2.6c-0.6,1.2-1,2.5-1,4.1s0.3,3,1,4.2c0.6,1.2,1.5,2.1,2.6,2.7c1.1,0.6,2.2,1,3.4,1
			c1.2,0,2.4-0.3,3.5-0.9c1.1-0.6,1.9-1.5,2.6-2.7s1-2.5,1-4.2S169.4,44,168.7,42.8z"/>
		<path class="st0" d="M193.1,34.6c1.5-0.8,3.2-1.2,5.2-1.2c2.2,0,4.3,0.6,6.1,1.7c1.8,1.1,3.3,2.7,4.3,4.7c1.1,2,1.6,4.4,1.6,7.1
			s-0.5,5.1-1.6,7.1c-1.1,2.1-2.5,3.7-4.3,4.8c-1.8,1.1-3.9,1.7-6.1,1.7c-2,0-3.7-0.4-5.2-1.2c-1.5-0.8-2.7-1.8-3.5-3v3.8h-6.6V25
			h6.6v12.7C190.4,36.4,191.6,35.4,193.1,34.6z M202.5,42.8c-0.6-1.2-1.5-2-2.6-2.6c-1.1-0.6-2.2-0.9-3.4-0.9
			c-1.2,0-2.3,0.3-3.4,0.9c-1.1,0.6-1.9,1.5-2.6,2.7c-0.6,1.2-1,2.5-1,4.1c0,1.6,0.3,3,1,4.1c0.6,1.2,1.5,2.1,2.6,2.7
			s2.2,0.9,3.4,0.9c1.2,0,2.4-0.3,3.4-1c1.1-0.6,1.9-1.5,2.6-2.7c0.6-1.2,1-2.6,1-4.2C203.5,45.3,203.1,44,202.5,42.8z"/>
		<path class="st0" d="M221.7,25v35.1h-6.6V25H221.7z"/>
		<path class="st0" d="M233.1,58.9c-2-1.1-3.6-2.7-4.8-4.8c-1.2-2.1-1.7-4.4-1.7-7.1s0.6-5.1,1.8-7.1c1.2-2.1,2.8-3.6,4.9-4.8
			c2.1-1.1,4.4-1.7,6.9-1.7c2.5,0,4.8,0.6,6.9,1.7c2.1,1.1,3.7,2.7,4.9,4.8s1.8,4.4,1.8,7.1s-0.6,5.1-1.8,7.1
			c-1.2,2.1-2.9,3.7-4.9,4.8c-2.1,1.1-4.4,1.7-7,1.7C237.5,60.6,235.2,60,233.1,58.9z M243.4,53.9c1.1-0.6,1.9-1.5,2.5-2.6
			c0.6-1.2,0.9-2.6,0.9-4.3c0-2.5-0.7-4.4-2-5.8c-1.3-1.3-2.9-2-4.8-2c-1.9,0-3.5,0.7-4.8,2c-1.3,1.3-1.9,3.3-1.9,5.8
			c0,2.5,0.6,4.4,1.9,5.8c1.2,1.3,2.8,2,4.7,2C241.2,54.8,242.3,54.5,243.4,53.9z"/>
		<path class="st0" d="M258.6,39.9c1.1-2,2.6-3.6,4.6-4.7c2-1.1,4.2-1.7,6.7-1.7c3.3,0,6,0.8,8.1,2.4c2.1,1.6,3.6,3.9,4.3,6.9h-7.2
			c-0.4-1.1-1-2-1.9-2.7c-0.9-0.6-2-1-3.3-1c-1.9,0-3.4,0.7-4.5,2.1c-1.1,1.4-1.7,3.3-1.7,5.9c0,2.5,0.6,4.4,1.7,5.8
			c1.1,1.4,2.6,2.1,4.5,2.1c2.7,0,4.4-1.2,5.3-3.6h7.2c-0.7,2.8-2.2,5.1-4.3,6.8c-2.2,1.7-4.8,2.5-8.1,2.5c-2.5,0-4.8-0.6-6.7-1.7
			c-2-1.1-3.5-2.7-4.6-4.7c-1.1-2-1.7-4.4-1.7-7.1C256.9,44.3,257.4,41.9,258.6,39.9z"/>
		<path class="st0" d="M302.8,60.2L293.8,49v11.2h-6.6V25h6.6v20l8.8-11.2h8.6l-11.6,13.2l11.7,13.1H302.8z"/>
		<path class="st0" d="M319.2,59.4c-1.7-0.8-3.1-1.8-4.1-3.2c-1-1.3-1.5-2.8-1.6-4.4h6.7c0.1,1,0.6,1.9,1.5,2.5c0.9,0.7,2,1,3.3,1
			c1.3,0,2.3-0.3,3-0.8c0.7-0.5,1.1-1.2,1.1-1.9c0-0.9-0.4-1.5-1.3-1.9c-0.9-0.4-2.3-0.9-4.2-1.4c-2-0.5-3.6-1-4.8-1.5
			c-1.3-0.5-2.3-1.3-3.2-2.3s-1.4-2.5-1.4-4.2c0-1.5,0.4-2.8,1.3-4c0.8-1.2,2-2.2,3.6-2.8c1.6-0.7,3.4-1,5.5-1
			c3.1,0,5.6,0.8,7.5,2.4c1.9,1.6,2.9,3.7,3.1,6.3h-6.4c-0.1-1-0.5-1.9-1.3-2.5c-0.8-0.6-1.8-0.9-3.1-0.9c-1.2,0-2.1,0.2-2.8,0.7
			c-0.6,0.4-1,1.1-1,1.9c0,0.9,0.4,1.6,1.3,2c0.9,0.5,2.3,0.9,4.1,1.4c1.9,0.5,3.5,1,4.7,1.5c1.2,0.5,2.3,1.3,3.2,2.4
			c0.9,1.1,1.4,2.5,1.4,4.2c0,1.5-0.4,2.9-1.3,4.1c-0.8,1.2-2,2.1-3.6,2.8s-3.4,1-5.5,1C322.8,60.6,320.9,60.2,319.2,59.4z"/>
	</g>
	<g>
		<path class="st1" d="M22.8,49.8c0,7.6,0,15.2,0,22.8c0,1.8-1.5,3.5-3.3,3.6c-0.9,0.1-1.8,0.1-2.6,0.1c-3.4,0-6.8,0-10.2,0
			c-1.4,0-2.5-0.5-3.3-1.7c-0.5-0.7-0.7-1.6-0.7-2.4c0-2.7,0-5.5,0-8.2c0-4.4,0-8.7,0-13.1c0-5,0-10.1,0-15.1c0-2.7,0-5.4,0-8.1
			c0-2.6,1.6-4.2,4.2-4.2c4.1,0,8.2,0,12.3,0c2.3,0,3.7,1.9,3.7,3.7C22.8,34.7,22.8,42.2,22.8,49.8z"/>
		<path class="st2" d="M53,58.6c0-4.7,0-9.3,0-14c0-1.9,1.7-3.6,3.6-3.6c4.3,0,8.6,0,12.8,0c1.8,0,3.5,1.5,3.6,3.3
			c0.1,2.5,0.1,5.1,0.1,7.6c0,6.8,0,13.5,0,20.3c0,2-1.1,3.5-3,3.9c-0.3,0.1-0.7,0.1-1.1,0.1c-4,0-8.1,0-12.1,0c-2,0-3.4-1.1-3.9-3
			c0-0.2,0-0.4,0-0.6C53,68,53,63.3,53,58.6z"/>
		<path class="st1" d="M53,22.1c0-4.3,0-8.5,0-12.8c0-1.7,1.6-3.5,3.3-3.5c2-0.1,4-0.1,6-0.1c2.3,0,4.6,0,6.8,0
			c1.3,0,2.4,0.5,3.2,1.6c0.5,0.7,0.7,1.6,0.7,2.5c0,4,0,8.1,0,12.1c0,4.2,0,8.4,0,12.6c0,2-1.1,3.4-3,3.9c-0.3,0.1-0.7,0.1-1.1,0.1
			c-4.1,0-8.1,0-12.2,0c-1.9,0-3.5-1.2-3.9-3.1c0-0.2,0-0.4,0-0.6C53,30.6,53,26.4,53,22.1z"/>
		<path class="st1" d="M27.8,63.6c0-2.9,0-5.8,0-8.7c0-1.8,1.2-3.4,2.9-3.8c0.6-0.1,1.3-0.1,2-0.1c3.8,0,7.6,0,11.5,0
			c2.2,0,3.8,1.7,3.8,3.9c0,2.2,0,4.4,0,6.6c0,3.6,0,7.2,0,10.8c0,1.9-1.1,3.3-3,3.8c-0.3,0.1-0.7,0.1-1.1,0.1c-4,0-8.1,0-12.1,0
			c-2.4,0-4.1-1.6-4.1-4.1C27.8,69.3,27.8,66.5,27.8,63.6z"/>
		<path class="st3" d="M48,17.1c0,2.4,0,4.8,0,7.3c0,2.4-1.6,4.1-4.1,4.1c-4.1,0-8.1,0-12.2,0c-1.6,0-2.8-0.7-3.5-2.1
			c-0.5-0.8-0.4-1.8-0.4-2.7c0-4.6,0-9.2,0-13.9c0-2.4,1.6-4,4-4c3.9,0,7.9,0,11.8,0c0.8,0,1.5,0,2.2,0.3C47.2,6.8,48,8,48,9.6
			C48,12.1,48,14.6,48,17.1z"/>
		<path class="st1" d="M37.9,48.5c-2.2,0-4.3,0-6.5,0c-1.6,0-3.3-1.4-3.5-3c-0.1-0.4-0.1-0.8-0.1-1.2c0-3.2,0-6.3,0-9.5
			c0-1.5,0.7-2.8,2.1-3.5c0.5-0.3,1.2-0.4,1.7-0.4c4.2,0,8.4,0,12.5,0c2.1,0,3.8,1.7,3.8,3.9c0,3.3,0,6.7,0,10
			c0,2.1-1.7,3.8-3.8,3.8C42.1,48.5,40,48.5,37.9,48.5z"/>
		<path class="st1" d="M12.7,18.4c-2.1,0-4.3,0-6.4,0c-1.8,0-3.5-1.5-3.6-3.3c-0.1-2-0.1-4.1,0-6.1c0-1.5,1.7-3,3.1-3.1
			c0.7-0.1,1.3-0.1,2-0.1c3.7,0,7.3,0,11,0c1.9,0,3.4,1.1,3.9,3c0,0.2,0.1,0.4,0.1,0.6c0,1.8,0,3.7,0,5.5c0,1.8-1.8,3.6-3.6,3.6
			C17.1,18.4,14.9,18.4,12.7,18.4z"/>
	</g>
</g>
</svg>
