<?xml version="1.0" encoding="utf-8"?>
<!-- Generator: Adobe Illustrator 28.0.0, SVG Export Plug-In . SVG Version: 6.00 Build 0)  -->
<svg version="1.1" id="Layer_1" xmlns="http://www.w3.org/2000/svg" xmlns:xlink="http://www.w3.org/1999/xlink" x="0px" y="0px"
	 viewBox="0 0 220 200" style="enable-background:new 0 0 220 200;" xml:space="preserve">
<style type="text/css">
	.st0{fill-rule:evenodd;clip-rule:evenodd;fill:#FFFFFF;}
	.st1{fill:#FFFFFF;}
	.st2{fill:#5E2CED;}
	.st3{fill:#DD471F;}
	.st4{fill:#E8BB00;}
</style>
<path class="st0" d="M136.7,94.5c5.3,0,9.6,4.2,9.6,9.4c0,5.2-4.3,9.4-9.6,9.4s-9.6-4.2-9.6-9.4C127.2,98.7,131.4,94.5,136.7,94.5z"
	/>
<path class="st1" d="M94.7,64.3h11.7v70.1h39.3v9.6H94.7V64.3z"/>
<g>
	<path class="st2" d="M67.5,124.7c0,20.9,0,41.8,0,62.7c0,5-4.1,9.6-9.2,9.9c-2.4,0.2-4.8,0.2-7.2,0.2c-9.3,0-18.7,0-28,0
		c-3.8,0-7-1.4-9.2-4.6c-1.4-2-1.9-4.3-1.9-6.7c0-7.5,0.1-15,0.1-22.6c0-12-0.1-24-0.1-36.1c0-13.9,0-27.8,0.1-41.6
		c0-7.4,0-14.9-0.1-22.3C12,56.4,16.4,52,23.5,52c11.2,0,22.5-0.1,33.7,0c6.2,0.1,10.3,5.3,10.3,10.3
		C67.5,83.1,67.5,103.9,67.5,124.7z"/>
	<path class="st3" d="M150.5,149c0-12.8,0-25.7,0-38.5c0-5.3,4.7-10,10-10c11.8,0,23.5,0,35.3,0c5.1,0,9.8,4.1,9.9,9.2
		c0.2,7,0.2,14,0.2,21c0,18.6,0,37.2,0,55.8c0,5.5-3.1,9.5-8.2,10.7c-1,0.2-2,0.3-2.9,0.3c-11.1,0-22.2,0-33.3,0
		c-5.5,0-9.4-3.1-10.8-8.4c-0.1-0.5-0.1-1-0.1-1.5C150.5,174.7,150.5,161.9,150.5,149z"/>
	<path class="st2" d="M150.5,48.6c0-11.7,0-23.4,0-35.2c0-4.8,4.3-9.5,9.1-9.7c5.5-0.2,11-0.2,16.5-0.2c6.3,0,12.5,0,18.8,0
		c3.7,0,6.7,1.3,8.9,4.3c1.5,2,2.1,4.3,2.1,6.8c0,11.1,0,22.2,0,33.3c0,11.5,0,23.1,0,34.6c0,5.4-3,9.4-8.1,10.7
		c-0.9,0.2-2,0.3-2.9,0.3c-11.2,0-22.4,0-33.6,0c-5.4,0-9.5-3.3-10.7-8.5c-0.1-0.5-0.1-1-0.1-1.5C150.5,72,150.5,60.3,150.5,48.6z"
		/>
	<path class="st2" d="M81.2,162.8c0-8,0-16,0-24c0-5,3.2-9.2,8.1-10.4c1.7-0.4,3.6-0.3,5.4-0.3c10.5,0,21,0,31.5,0
		c6,0,10.6,4.7,10.6,10.7c0,6-0.1,12-0.1,18c0,9.9,0.1,19.9,0.1,29.8c0,5.1-3.1,9.2-8.1,10.5c-0.9,0.2-2,0.3-2.9,0.3
		c-11.1,0-22.2,0-33.3,0c-6.7,0-11.2-4.5-11.2-11.2C81.2,178.4,81.2,170.6,81.2,162.8z"/>
	<path class="st4" d="M136.8,34.8c0,6.7,0,13.3,0,20c0,6.7-4.5,11.2-11.2,11.2c-11.2,0-22.4,0-33.6,0c-4.3,0-7.6-2-9.6-5.8
		c-1.3-2.3-1.1-4.9-1.1-7.4c0-12.7,0-25.4,0-38.1c0-6.5,4.4-11.1,10.9-11.1c10.8,0,21.6,0,32.4,0c2.1,0,4.1,0,6,0.9
		c4,2,6.1,5.3,6.1,9.7C136.8,21.1,136.8,27.9,136.8,34.8z"/>
	<path class="st2" d="M109,121.3c-5.9,0-11.8,0-17.8,0c-4.5,0-9-3.8-9.7-8.3c-0.2-1.1-0.3-2.1-0.3-3.2c0-8.7,0-17.5,0-26.2
		c0-4.2,1.8-7.6,5.7-9.6c1.5-0.7,3.2-1.2,4.8-1.2c11.5-0.1,23-0.1,34.5,0c5.9,0,10.5,4.7,10.5,10.6c0,9.2,0,18.3,0,27.5
		c0,5.8-4.7,10.5-10.5,10.4C120.5,121.2,114.7,121.3,109,121.3z"/>
	<path class="st2" d="M39.7,38.2c-5.9,0-11.8,0-17.6,0c-4.9,0-9.7-4.2-9.8-9.1c-0.2-5.6-0.2-11.2,0-16.8c0.1-4,4.6-8.3,8.6-8.6
		c1.8-0.1,3.7-0.2,5.6-0.2c10.1,0,20.1,0,30.2,0c5.3,0,9.3,3.1,10.6,8.2c0.1,0.5,0.2,1,0.2,1.5c0,5.1,0,10.1,0,15.2
		c0,5-4.8,9.8-9.8,9.8C51.7,38.2,45.7,38.2,39.7,38.2z"/>
</g>
</svg>
